<svg class="stock-button__icon" width="30" height="30" viewBox="0 0 32 32" xmlns="http://www.w3.org/2000/svg"><g stroke="#141414" fill="none" fill-rule="evenodd"><circle fill="#FFF" cx="16" cy="16" r="15.5"/><path d="M16 6.5c1.79 0 3.408.802 4.58 2.091C21.768 9.9 22.5 11.705 22.5 13.7c0 1.71-1.004 4.048-2.228 6.198a31.07 31.07 0 01-2.66 3.951C16.887 24.75 16.29 25.5 16 25.5c-.29 0-.887-.75-1.612-1.652a31.07 31.07 0 01-2.66-3.951c-1.224-2.15-2.228-4.489-2.228-6.198 0-1.994.732-3.8 1.92-5.108C12.592 7.302 14.21 6.5 16 6.5zm0 3c-.69 0-1.315.28-1.768.732A2.492 2.492 0 0013.5 12c0 .69.28 1.315.732 1.768A2.492 2.492 0 0016 14.5c.69 0 1.315-.28 1.768-.732A2.492 2.492 0 0018.5 12c0-.69-.28-1.315-.732-1.768A2.492 2.492 0 0016 9.5z"/></g></svg>